<svg xmlns="http://www.w3.org/2000/svg" viewBox="0 0 237.81 63.27"><defs><style>.\36 eee2d05-1285-4355-9a70-4b0290690c88{fill:#737577;}.e3bfd4c0-8205-4e76-90aa-c46900a1e478{fill:#32c5f4;}</style></defs><title>FLOW_LOGO</title><g id="e5a1086c-0c0b-4aea-b56b-d9c92f194a46" data-name="Layer 2"><g id="c195a26f-bcb8-44bb-989b-2e5669cb7d71" data-name="Layer 1"><path class="6eee2d05-1285-4355-9a70-4b0290690c88" d="M1.74,60.19A1.77,1.77,0,0,1,0,58.45V5.27A1.77,1.77,0,0,1,1.74,3.53H40.32a1.77,1.77,0,0,1,1.74,1.74V15.88a1.77,1.77,0,0,1-1.74,1.74H15.91a1.46,1.46,0,0,0-1.45,1.45v7.12a1.46,1.46,0,0,0,1.45,1.45h20a1.77,1.77,0,0,1,1.74,1.74V39a1.77,1.77,0,0,1-1.74,1.74h-20a1.46,1.46,0,0,0-1.45,1.45v16.2a1.77,1.77,0,0,1-1.74,1.74Z"/><path class="6eee2d05-1285-4355-9a70-4b0290690c88" d="M51.51,60.19a1.77,1.77,0,0,1-1.74-1.74V5.27a1.77,1.77,0,0,1,1.74-1.74h11a1.77,1.77,0,0,1,1.74,1.74V44.72a1.46,1.46,0,0,0,1.45,1.45h24a1.77,1.77,0,0,1,1.74,1.74V58.45a1.77,1.77,0,0,1-1.74,1.74Z"/><path class="6eee2d05-1285-4355-9a70-4b0290690c88" d="M186.19,58.52a2.33,2.33,0,0,1-2.25,1.67H172.38a2.27,2.27,0,0,1-2.18-1.67l-15-53.32a1.36,1.36,0,0,1,1.31-1.67h12a2.27,2.27,0,0,1,2.18,1.67L179,35.93a.42.42,0,0,0,.8,0L189.46,5.2a2.33,2.33,0,0,1,2.25-1.67h9.44A2.33,2.33,0,0,1,203.4,5.2l9.66,30.66a.42.42,0,0,0,.8,0L222.22,5.2a2.27,2.27,0,0,1,2.18-1.67h12.06a1.36,1.36,0,0,1,1.31,1.67l-15,53.32a2.27,2.27,0,0,1-2.18,1.67H209a2.33,2.33,0,0,1-2.25-1.67l-9.88-29.86a.45.45,0,0,0-.87,0Z"/><path class="e3bfd4c0-8205-4e76-90aa-c46900a1e478" d="M120,24.94a7.63,7.63,0,1,1-2.94,3h0A7.62,7.62,0,0,1,120,24.94Zm6.77,4.95a3.47,3.47,0,0,0-6.07,0h0a3.47,3.47,0,1,0,6.07,0Z"/><path class="e3bfd4c0-8205-4e76-90aa-c46900a1e478" d="M84.38,32.88A2.08,2.08,0,0,0,86.16,36a32,32,0,0,0,15.55-3.5A67.49,67.49,0,0,0,111.9,25.8a31.79,31.79,0,0,1,7.68-4.75,10.85,10.85,0,0,1,8.18.13A11.3,11.3,0,1,1,112.28,33.1a10.77,10.77,0,0,1,0-1.13,2.08,2.08,0,1,0-4.14-.33,14.7,14.7,0,0,0,0,1.74v.15a15.46,15.46,0,1,0,21.17-16.2A15,15,0,0,0,118,17.2a35.86,35.86,0,0,0-8.6,5.27,63.9,63.9,0,0,1-9.62,6.3,27.89,27.89,0,0,1-13.56,3A2.08,2.08,0,0,0,84.38,32.88Z"/><path class="e3bfd4c0-8205-4e76-90aa-c46900a1e478" d="M83.74,24.76a2.08,2.08,0,0,0,1.72,3.07,26.55,26.55,0,0,0,5.87-.34A22.7,22.7,0,0,0,98,25.27a60.15,60.15,0,0,0,9-5.92,39.62,39.62,0,0,1,9.51-5.79,18.85,18.85,0,0,1,14.25.14A19.39,19.39,0,1,1,104.59,36a2.08,2.08,0,0,0-4.05.93,23.54,23.54,0,1,0,31.82-27A23,23,0,0,0,115,9.7,43,43,0,0,0,104.53,16a56.62,56.62,0,0,1-8.46,5.56,18.6,18.6,0,0,1-5.46,1.81,22.48,22.48,0,0,1-5,.29A2.08,2.08,0,0,0,83.74,24.76Z"/><path class="e3bfd4c0-8205-4e76-90aa-c46900a1e478" d="M83.3,16.64a2.08,2.08,0,0,0,1.63,3.07,17,17,0,0,0,9.35-1.59,52.58,52.58,0,0,0,7.9-5.2,47.22,47.22,0,0,1,11.35-6.84,26.9,26.9,0,0,1,20.32.15,27.44,27.44,0,0,1,.32,50.71,27.26,27.26,0,0,1-21,.15A27.54,27.54,0,0,1,96.91,38.47a2.08,2.08,0,1,0-4,1,31.72,31.72,0,0,0,18.71,21.43,31.59,31.59,0,0,0,41-41.55,31.39,31.39,0,0,0-17.2-17A31,31,0,0,0,112,2.23,50.7,50.7,0,0,0,99.67,9.6a49.28,49.28,0,0,1-7.31,4.83,12.89,12.89,0,0,1-7,1.14A2.08,2.08,0,0,0,83.3,16.64Z"/></g></g></svg>