<svg xmlns="http://www.w3.org/2000/svg" viewBox="0 0 61.25 68.69"><defs><style>.cls-1{fill:#fadf8d;}</style></defs><title>star</title><g id="Layer_2" data-name="Layer 2"><g id="Layer_1-2" data-name="Layer 1"><path class="cls-1" d="M37.63,43.38c-.7-2.31-.16-2.95,2.27-2.65l21.35,2.54L40.81,34.58c-.88-.35-1.64-.83-1.29-1.94a3.07,3.07,0,0,1,.85-1.12L59.67,12.69,36.19,26.6c-1.72,1.05-2.61.63-2.83-1.36L30.06,0,27.34,25c-.26,2.33-1,2.7-3,1.46L0,11.6,20.45,31.32c1.66,1.65,1.5,2.52-.65,3.38l-17.47,7L21.15,40.6c2.17-.23,2.76.5,1.95,2.52L16.33,60.35l12.4-14.91c1.1-1.37,2.12-1.3,3,.18l14,23.06L37.63,43.38"/></g></g></svg>